<?xml version="1.0" encoding="UTF-8" standalone="no"?>
<!DOCTYPE svg PUBLIC "-//W3C//DTD SVG 1.1//EN" "http://www.w3.org/Graphics/SVG/1.1/DTD/svg11.dtd">
<svg xmlns="http://www.w3.org/2000/svg" width="3.2in" height="3.2in" viewBox="1382 2091 3848 3848">
<g style="stroke:#000000; stroke-width:32; fill:#ffe0e0">
<rect x="1417" y="2125" width="944" height="472"/>
<rect x="1417" y="2598" width="944" height="472"/>
<rect x="1417" y="4960" width="944" height="472"/>
<rect x="1417" y="5433" width="944" height="472"/>
<rect x="2834" y="5433" width="944" height="472"/>
<rect x="3779" y="5433" width="944" height="472"/>
<rect x="3307" y="4960" width="944" height="472"/>
<rect x="2362" y="3543" width="944" height="472"/>
<rect x="2362" y="4015" width="944" height="472"/>
<rect x="1889" y="3070" width="944" height="472"/>
<rect x="1889" y="4488" width="944" height="472"/>
<rect x="2834" y="2125" width="944" height="472"/>
<rect x="3779" y="2125" width="944" height="472"/>
<rect x="3307" y="2598" width="944" height="472"/>
<rect x="4724" y="3070" width="472" height="944" style="fill:#c7f5c8"/>
<rect x="4724" y="2125" width="472" height="944" style="fill:#c7f5c8"/>
<rect x="4724" y="4015" width="472" height="944" style="fill:#c7f5c8"/>
<rect x="4724" y="4960" width="472" height="944" style="fill:#c7f5c8"/>
<rect x="4251" y="4488" width="472" height="944" style="fill:#c7f5c8"/>
<rect x="4251" y="3543" width="472" height="944" style="fill:#c7f5c8"/>
<rect x="4251" y="2598" width="472" height="944" style="fill:#c7f5c8"/>
<rect x="3779" y="4015" width="472" height="944" style="fill:#c7f5c8"/>
<rect x="3779" y="3070" width="472" height="944" style="fill:#c7f5c8"/>
<rect x="3307" y="3070" width="472" height="944" style="fill:#c7f5c8"/>
<rect x="3307" y="4015" width="472" height="944" style="fill:#c7f5c8"/>
<rect x="1889" y="3543" width="472" height="944" style="fill:#c7f5c8"/>
<rect x="1417" y="4015" width="472" height="944" style="fill:#c7f5c8"/>
<rect x="1417" y="3070" width="472" height="944" style="fill:#c7f5c8"/>
<rect x="2834" y="4488" width="472" height="944" style="fill:#c7f5c8"/>
<rect x="2362" y="4960" width="472" height="944" style="fill:#c7f5c8"/>
<rect x="2834" y="2598" width="472" height="944" style="fill:#c7f5c8"/>
<rect x="2362" y="2125" width="472" height="944" style="fill:#c7f5c8"/>
</g>
</svg>