<?xml version="1.0" encoding="UTF-8" standalone="no"?>
<!-- Creator: fig2dev Version 3.2.8b -->
<!-- CreationDate: 2023-04-18 17:27:26 -->
<!-- Magnification: 1.05 -->
<svg	xmlns="http://www.w3.org/2000/svg"
	xmlns:xlink="http://www.w3.org/1999/xlink"
	width="369pt" height="352pt"
	viewBox="1241 836 5843 5573">
<g fill="none">
<!-- Circle -->
<circle cx="4950" cy="945" r="101" fill="#000000"
	stroke="#000000" stroke-width="8px"/>
<!-- Circle -->
<circle cx="2700" cy="2250" r="101" fill="#000000"
	stroke="#000000" stroke-width="8px"/>
<!-- Circle -->
<circle cx="5175" cy="2250" r="101" fill="#000000"
	stroke="#000000" stroke-width="8px"/>
<!-- Circle -->
<circle cx="6075" cy="2250" r="101" fill="#000000"
	stroke="#000000" stroke-width="8px"/>
<!-- Circle -->
<circle cx="6975" cy="2250" r="101" fill="#000000"
	stroke="#000000" stroke-width="8px"/>
<!-- Circle -->
<circle cx="4275" cy="3600" r="101" fill="#000000"
	stroke="#000000" stroke-width="8px"/>
<!-- Circle -->
<circle cx="4275" cy="4950" r="101" fill="#000000"
	stroke="#000000" stroke-width="8px"/>
<!-- Circle -->
<circle cx="3150" cy="4950" r="101" fill="#000000"
	stroke="#000000" stroke-width="8px"/>
<!-- Circle -->
<circle cx="5400" cy="4950" r="101" fill="#000000"
	stroke="#000000" stroke-width="8px"/>
<!-- Circle -->
<circle cx="5400" cy="6300" r="101" fill="#000000"
	stroke="#000000" stroke-width="8px"/>
<!-- Circle -->
<circle cx="1350" cy="3600" r="101" fill="#000000"
	stroke="#000000" stroke-width="8px"/>
<!-- Line -->
<polyline points=" 4950,900 5175,2250"
	stroke="#000000" stroke-width="15px"/>
<!-- Line -->
<polyline points=" 4950,900 6075,2250"
	stroke="#000000" stroke-width="15px"/>
<!-- Line -->
<polyline points=" 4950,900 6975,2250"
	stroke="#000000" stroke-width="15px"/>
<!-- Line -->
<polyline points=" 4950,900 2700,2250"
	stroke="#000000" stroke-width="15px"/>
<!-- Line -->
<polyline points=" 2700,2250 1350,3600"
	stroke="#000000" stroke-width="15px"/>
<!-- Line -->
<polyline points=" 2700,2250 4275,3600"
	stroke="#000000" stroke-width="15px"/>
<!-- Line -->
<polyline points=" 4275,3600 3150,4950"
	stroke="#000000" stroke-width="15px"/>
<!-- Line -->
<polyline points=" 4275,3600 4275,4950"
	stroke="#000000" stroke-width="15px"/>
<!-- Line -->
<polyline points=" 4275,3600 5400,4950"
	stroke="#000000" stroke-width="15px"/>
<!-- Line -->
<polyline points=" 5400,4950 5400,6300"
	stroke="#000000" stroke-width="15px"/>
</g>
</svg>
