<?xml version="1.0" encoding="UTF-8" standalone="no"?>
<!-- Creator: fig2dev Version 3.2.8b -->
<!-- CreationDate: 2023-04-18 17:27:41 -->
<!-- Magnification: 1.05 -->
<svg	xmlns="http://www.w3.org/2000/svg"
	xmlns:xlink="http://www.w3.org/1999/xlink"
	width="369pt" height="352pt"
	viewBox="566 836 5843 5573">
<g fill="none">
<!-- Circle -->
<circle cx="2700" cy="945" r="101" fill="#000000"
	stroke="#000000" stroke-width="8px"/>
<!-- Circle -->
<circle cx="4950" cy="2250" r="101" fill="#000000"
	stroke="#000000" stroke-width="8px"/>
<!-- Circle -->
<circle cx="2475" cy="2250" r="101" fill="#000000"
	stroke="#000000" stroke-width="8px"/>
<!-- Circle -->
<circle cx="1575" cy="2250" r="101" fill="#000000"
	stroke="#000000" stroke-width="8px"/>
<!-- Circle -->
<circle cx="675" cy="2250" r="101" fill="#000000"
	stroke="#000000" stroke-width="8px"/>
<!-- Circle -->
<circle cx="3375" cy="3600" r="101" fill="#000000"
	stroke="#000000" stroke-width="8px"/>
<!-- Circle -->
<circle cx="3375" cy="4950" r="101" fill="#000000"
	stroke="#000000" stroke-width="8px"/>
<!-- Circle -->
<circle cx="4500" cy="4950" r="101" fill="#000000"
	stroke="#000000" stroke-width="8px"/>
<!-- Circle -->
<circle cx="2250" cy="4950" r="101" fill="#000000"
	stroke="#000000" stroke-width="8px"/>
<!-- Circle -->
<circle cx="2250" cy="6300" r="101" fill="#000000"
	stroke="#000000" stroke-width="8px"/>
<!-- Circle -->
<circle cx="6300" cy="3600" r="101" fill="#000000"
	stroke="#000000" stroke-width="8px"/>
<!-- Line -->
<polyline points=" 2700,900 2475,2250"
	stroke="#000000" stroke-width="15px"/>
<!-- Line -->
<polyline points=" 2700,900 1575,2250"
	stroke="#000000" stroke-width="15px"/>
<!-- Line -->
<polyline points=" 2700,900 675,2250"
	stroke="#000000" stroke-width="15px"/>
<!-- Line -->
<polyline points=" 2700,900 4950,2250"
	stroke="#000000" stroke-width="15px"/>
<!-- Line -->
<polyline points=" 4950,2250 6300,3600"
	stroke="#000000" stroke-width="15px"/>
<!-- Line -->
<polyline points=" 4950,2250 3375,3600"
	stroke="#000000" stroke-width="15px"/>
<!-- Line -->
<polyline points=" 3375,3600 4500,4950"
	stroke="#000000" stroke-width="15px"/>
<!-- Line -->
<polyline points=" 3375,3600 3375,4950"
	stroke="#000000" stroke-width="15px"/>
<!-- Line -->
<polyline points=" 3375,3600 2250,4950"
	stroke="#000000" stroke-width="15px"/>
<!-- Line -->
<polyline points=" 2250,4950 2250,6300"
	stroke="#000000" stroke-width="15px"/>
</g>
</svg>
